<?xml version="1.0" encoding="utf-8"?>
<!-- Generator: Adobe Illustrator 16.0.0, SVG Export Plug-In . SVG Version: 6.00 Build 0)  -->
<!DOCTYPE svg PUBLIC "-//W3C//DTD SVG 1.1//EN" "http://www.w3.org/Graphics/SVG/1.1/DTD/svg11.dtd">
<svg version="1.1" id="Layer_1" xmlns="http://www.w3.org/2000/svg" xmlns:xlink="http://www.w3.org/1999/xlink" x="0px" y="0px"
	 width="420.229px" height="420.23px" viewBox="0 0 420.229 420.23" enable-background="new 0 0 420.229 420.23"
	 xml:space="preserve">
<rect fill="#F8EC20" width="420.229" height="420.23"/>
<path fill="#ED1C24" stroke="#DA1C5C" stroke-width="18" d="M222.2,152.461l-9.742,7.475c-5.375-6.998-11.829-12.304-19.358-15.915
	c-7.531-3.611-15.804-5.417-24.817-5.417c-9.855,0-18.98,2.366-27.379,7.097c-8.398,4.731-14.907,11.086-19.526,19.064
	s-6.929,16.952-6.929,26.917c0,15.063,5.165,27.631,15.495,37.709c10.33,10.079,23.361,15.118,39.095,15.118
	c17.301,0,31.773-6.773,43.42-20.325l9.742,7.39c-6.16,7.841-13.845,13.899-23.054,18.183c-9.211,4.283-19.499,6.426-30.864,6.426
	c-21.613,0-38.662-7.193-51.146-21.585c-10.471-12.148-15.705-26.818-15.705-44.007c0-18.084,6.341-33.3,19.022-45.646
	s28.568-18.519,47.661-18.519c11.533,0,21.947,2.282,31.242,6.845C208.649,137.834,216.265,144.23,222.2,152.461z"/>
<linearGradient id="SVGID_1_" gradientUnits="userSpaceOnUse" x1="69.8013" y1="191.3032" x2="412.7695" y2="191.3032">
	<stop  offset="0" style="stop-color:#EC008C"/>
	<stop  offset="0.0793" style="stop-color:#D0108C"/>
	<stop  offset="0.2203" style="stop-color:#A9218E"/>
	<stop  offset="0.3617" style="stop-color:#882890"/>
	<stop  offset="0.5002" style="stop-color:#6C2C91"/>
	<stop  offset="0.6351" style="stop-color:#542E91"/>
	<stop  offset="0.7655" style="stop-color:#403092"/>
	<stop  offset="0.8894" style="stop-color:#333092"/>
	<stop  offset="1" style="stop-color:#2E3192"/>
</linearGradient>
<path fill="none" stroke="url(#SVGID_1_)" stroke-width="7" stroke-linecap="round" stroke-linejoin="round" d="M385.912,126.817
	c-18.456-21.272-44.119-32.059-76.275-32.059c-16.973,0-32.518,3.227-46.199,9.589c-8.457,3.934-16.084,8.949-22.847,14.939
	c-6.276-5.667-13.362-10.467-21.223-14.327c-13.791-6.769-29.502-10.201-46.695-10.201c-28.396,0-52.321,9.274-71.11,27.567
	c-18.753,18.256-28.261,41.087-28.261,67.86c0,25.548,7.862,47.625,23.358,65.603c18.456,21.273,44.119,32.059,76.275,32.059
	c16.973,0,32.517-3.227,46.199-9.588c8.457-3.934,16.085-8.949,22.847-14.939c6.275,5.666,13.362,10.467,21.223,14.326
	c13.791,6.77,29.502,10.201,46.695,10.201c28.396,0,52.32-9.273,71.109-27.566c18.754-18.256,28.262-41.087,28.262-67.861
	C409.27,166.873,401.407,144.797,385.912,126.817z"/>
<path stroke="#DA1C5C" stroke-width="18" d="M312.908,126.427c18.712,0,34.37,6.244,46.977,18.729
	c12.605,12.486,18.909,27.855,18.909,46.107c0,18.086-6.29,33.426-18.867,46.023c-12.578,12.598-27.915,18.896-46.011,18.896
	c-18.32,0-33.784-6.27-46.39-18.813c-12.605-12.541-18.908-27.715-18.908-45.52c0-11.869,2.871-22.871,8.613-33.006
	c5.743-10.133,13.571-18.07,23.488-23.81C290.637,129.297,301.365,126.427,312.908,126.427z M313.454,138.437
	c-9.142,0-17.806,2.382-25.993,7.145c-8.188,4.764-14.582,11.18-19.18,19.248c-4.599,8.068-6.897,17.062-6.897,26.979
	c0,14.682,5.089,27.079,15.267,37.193s22.446,15.171,36.804,15.171c9.589,0,18.464-2.326,26.623-6.977s14.524-11.01,19.095-19.078
	c4.57-8.069,6.856-17.035,6.856-26.897c0-9.806-2.286-18.673-6.856-26.603c-4.57-7.928-11.006-14.273-19.305-19.037
	C331.567,140.819,322.764,138.437,313.454,138.437z"/>
<linearGradient id="SVGID_2_" gradientUnits="userSpaceOnUse" x1="-26.6836" y1="280.4028" x2="115.4766" y2="138.2426">
	<stop  offset="0" style="stop-color:#2E3192"/>
	<stop  offset="0.0245" style="stop-color:#2E2F8E"/>
	<stop  offset="0.2572" style="stop-color:#2C2A79"/>
	<stop  offset="0.4953" style="stop-color:#29266C"/>
	<stop  offset="0.7396" style="stop-color:#272364"/>
	<stop  offset="1" style="stop-color:#262262"/>
</linearGradient>
<path fill="url(#SVGID_2_)" d="M25.229,86.329h38.333v245.987H25.229V86.329z"/>
<g>
	<path d="M109.833,326.568c0.434-1.277,0.747-2.188,0.94-2.732s0.601-1.662,1.222-3.35l4.359-11.689h4.553l-9.193,23.52h-3.867
		l-9.193-23.52h4.588l4.359,11.689c0.621,1.688,1.028,2.805,1.222,3.35s0.507,1.455,0.94,2.732H109.833z"/>
	<path d="M149.978,328.712h11.566v3.604h-15.873v-23.52h15.24v3.604h-10.934v6.082h9.387v3.604h-9.387V328.712z"/>
	<path d="M199.966,319.73c1.688,2.402,3.059,4.535,4.114,6.398h0.105c-0.141-3.059-0.211-5.285-0.211-6.68v-10.652h4.307v23.52
		h-4.518l-7.665-10.828c-1.348-1.875-2.742-4.049-4.184-6.521h-0.105c0.141,2.883,0.211,5.115,0.211,6.697v10.652h-4.307v-23.52
		h4.518L199.966,319.73z"/>
	<path d="M235.506,332.316v-23.52h6.223c0.551,0,1.109,0.018,1.678,0.053s1.123,0.088,1.662,0.158s1.061,0.156,1.564,0.256
		s0.967,0.219,1.389,0.359c1.254,0.398,2.361,0.938,3.322,1.617s1.766,1.482,2.416,2.408s1.143,1.961,1.477,3.104
		s0.502,2.381,0.502,3.717c0,1.266-0.141,2.453-0.422,3.561s-0.709,2.117-1.283,3.031s-1.299,1.721-2.172,2.418
		s-1.906,1.268-3.102,1.713c-0.996,0.375-2.127,0.656-3.393,0.844s-2.689,0.281-4.271,0.281H235.506z M241.588,328.712
		c2.52,0,4.488-0.346,5.906-1.037c1.254-0.621,2.203-1.523,2.848-2.707s0.967-2.695,0.967-4.535c0-0.961-0.105-1.828-0.316-2.602
		s-0.516-1.461-0.914-2.064s-0.883-1.123-1.451-1.557s-1.209-0.791-1.924-1.072c-0.668-0.258-1.412-0.445-2.232-0.563
		s-1.74-0.176-2.76-0.176h-1.898v16.313H241.588z"/>
	<path d="M281.908,332.316v-23.52h4.307v23.52H281.908z"/>
	<path d="M325.691,319.73c1.688,2.402,3.059,4.535,4.113,6.398h0.105c-0.141-3.059-0.211-5.285-0.211-6.68v-10.652h4.307v23.52
		h-4.518l-7.664-10.828c-1.348-1.875-2.742-4.049-4.184-6.521h-0.105c0.141,2.883,0.211,5.115,0.211,6.697v10.652h-4.307v-23.52
		h4.518L325.691,319.73z"/>
	<path d="M375.855,323.333h-5.273v-3.604h9.58v11.865c-0.352,0.129-0.799,0.264-1.344,0.404s-1.154,0.268-1.828,0.379
		s-1.369,0.201-2.084,0.271s-1.424,0.105-2.127,0.105c-2.109,0-3.951-0.283-5.527-0.852s-2.889-1.369-3.938-2.4
		s-1.834-2.258-2.355-3.682s-0.783-2.998-0.783-4.721c0-1.219,0.139-2.381,0.414-3.488s0.68-2.133,1.213-3.076
		s1.18-1.797,1.941-2.559s1.633-1.412,2.611-1.951s2.051-0.951,3.217-1.238s2.416-0.432,3.752-0.432
		c1.184,0,2.309,0.086,3.375,0.256s1.939,0.377,2.619,0.623v3.656c-0.914-0.293-1.836-0.516-2.768-0.668s-1.873-0.229-2.822-0.229
		c-1.277,0-2.473,0.191-3.586,0.572s-2.076,0.943-2.891,1.688s-1.457,1.66-1.926,2.75s-0.703,2.35-0.703,3.779
		c0.012,2.777,0.738,4.861,2.18,6.25s3.486,2.082,6.135,2.082c0.492,0,1.002-0.025,1.529-0.078s0.99-0.121,1.389-0.203V323.333z"/>
</g>
<circle fill="#ED1C24" stroke="#F8EC20" stroke-width="5" cx="35.396" cy="89.73" r="19"/>
<g>
</g>
<g>
</g>
<g>
</g>
<g>
</g>
<g>
</g>
<g>
</g>
</svg>
